{
	"asset": 
	{
		"version": "2.0",
		"generator": "Unreal Engine 4 glTF Exporter"
	},
	"scene": 0,
	"accessors": [
		{
			"bufferView": 0,
			"count": 1476,
			"type": "SCALAR",
			"componentType": 5123
		},
		{
			"bufferView": 1,
			"count": 976,
			"type": "VEC3",
			"componentType": 5126,
			"min": [ -1.05330336,
				-7.42883894e-17,
				-1.44869745
			],
			"max": [ 1.05330336,
				1.1764673,
				1.44869745
			]
		},
		{
			"bufferView": 2,
			"count": 976,
			"type": "VEC3",
			"componentType": 5126
		},
		{
			"bufferView": 3,
			"count": 976,
			"type": "VEC4",
			"componentType": 5126
		},
		{
			"bufferView": 4,
			"count": 976,
			"type": "VEC2",
			"componentType": 5126
		},
		{
			"bufferView": 5,
			"count": 976,
			"type": "VEC2",
			"componentType": 5126
		}
	],
	"buffers": [
		{
			"uri": "Bed_1.bin",
			"byteLength": 57608
		}
	],
	"bufferViews": [
		{
			"buffer": 0,
			"byteLength": 2952,
			"target": 34963
		},
		{
			"buffer": 0,
			"byteLength": 11712,
			"byteOffset": 2952,
			"target": 34962
		},
		{
			"buffer": 0,
			"byteLength": 11712,
			"byteOffset": 14664,
			"target": 34962
		},
		{
			"buffer": 0,
			"byteLength": 15616,
			"byteOffset": 26376,
			"target": 34962
		},
		{
			"buffer": 0,
			"byteLength": 7808,
			"byteOffset": 41992,
			"target": 34962
		},
		{
			"buffer": 0,
			"byteLength": 7808,
			"byteOffset": 49800,
			"target": 34962
		}
	],
	"images": [
		{
			"uri": "Texture_Atlas.png"
		}
	],
	"materials": [
		{
			"name": "M_Texture_Atlas",
			"pbrMetallicRoughness": 
			{
				"baseColorTexture": 
				{
					"index": 0
				},
				"metallicFactor": 0.25,
				"roughnessFactor": 0.899999976
			}
		}
	],
	"meshes": [
		{
			"name": "SM_Bed_2A",
			"primitives": [
				{
					"attributes": 
					{
						"POSITION": 1,
						"NORMAL": 2,
						"TANGENT": 3,
						"TEXCOORD_0": 4,
						"TEXCOORD_1": 5
					},
					"indices": 0,
					"material": 0
				}
			]
		}
	],
	"nodes": [
		{
			"name": "SM_Bed_2A_318_StaticMeshComponent0",
			"translation": 
			[ 7.5,
				0,
				95.5
			],
			"mesh": 0
		}
	],
	"samplers": [
		{
			"name": "Texture_Atlas",
			"minFilter": 9987,
			"magFilter": 9729
		}
	],
	"scenes": [
		{
			"name": "Overview_Map",
			"nodes": [ 0 ]
		}
	],
	"textures": [
		{
			"name": "Texture_Atlas",
			"sampler": 0,
			"source": 0
		}
	]
}