{
	"asset": 
	{
		"version": "2.0",
		"generator": "Unreal Engine 4 glTF Exporter"
	},
	"scene": 0,
	"accessors": [
		{
			"bufferView": 0,
			"count": 36,
			"type": "SCALAR",
			"componentType": 5121
		},
		{
			"bufferView": 1,
			"count": 24,
			"type": "VEC3",
			"componentType": 5126,
			"min": [ -2,
				-0.099999994,
				-2
			],
			"max": [ 2,
				1.22464672e-16,
				2
			]
		},
		{
			"bufferView": 2,
			"count": 24,
			"type": "VEC3",
			"componentType": 5126
		},
		{
			"bufferView": 3,
			"count": 24,
			"type": "VEC4",
			"componentType": 5126
		},
		{
			"bufferView": 4,
			"count": 24,
			"type": "VEC2",
			"componentType": 5126
		},
		{
			"bufferView": 5,
			"count": 24,
			"type": "VEC2",
			"componentType": 5126
		}
	],
	"buffers": [
		{
			"uri": "Floor_4.bin",
			"byteLength": 1380
		}
	],
	"bufferViews": [
		{
			"buffer": 0,
			"byteLength": 36,
			"target": 34963
		},
		{
			"buffer": 0,
			"byteLength": 288,
			"byteOffset": 36,
			"target": 34962
		},
		{
			"buffer": 0,
			"byteLength": 288,
			"byteOffset": 324,
			"target": 34962
		},
		{
			"buffer": 0,
			"byteLength": 384,
			"byteOffset": 612,
			"target": 34962
		},
		{
			"buffer": 0,
			"byteLength": 192,
			"byteOffset": 996,
			"target": 34962
		},
		{
			"buffer": 0,
			"byteLength": 192,
			"byteOffset": 1188,
			"target": 34962
		}
	],
	"images": [
		{
			"uri": "Texture_Atlas.png"
		}
	],
	"materials": [
		{
			"name": "M_Texture_Atlas",
			"pbrMetallicRoughness": 
			{
				"baseColorTexture": 
				{
					"index": 0
				},
				"metallicFactor": 0.25,
				"roughnessFactor": 0.899999976
			}
		}
	],
	"meshes": [
		{
			"name": "SM_Floor_4A",
			"primitives": [
				{
					"attributes": 
					{
						"POSITION": 1,
						"NORMAL": 2,
						"TANGENT": 3,
						"TEXCOORD_0": 4,
						"TEXCOORD_1": 5
					},
					"indices": 0,
					"material": 0
				}
			]
		}
	],
	"nodes": [
		{
			"name": "SM_Floor_4A_771_StaticMeshComponent0",
			"translation": 
			[ 3.5,
				0,
				-71.5
			],
			"mesh": 0
		}
	],
	"samplers": [
		{
			"name": "Texture_Atlas",
			"minFilter": 9987,
			"magFilter": 9729
		}
	],
	"scenes": [
		{
			"name": "Overview_Map",
			"nodes": [ 0 ]
		}
	],
	"textures": [
		{
			"name": "Texture_Atlas",
			"sampler": 0,
			"source": 0
		}
	]
}