{
	"asset": 
	{
		"version": "2.0",
		"generator": "Unreal Engine 4 glTF Exporter"
	},
	"scene": 0,
	"accessors": [
		{
			"bufferView": 0,
			"count": 228,
			"type": "SCALAR",
			"componentType": 5121
		},
		{
			"bufferView": 1,
			"count": 152,
			"type": "VEC3",
			"componentType": 5126,
			"min": [ -1.25,
				-4.13318263e-17,
				-0.75
			],
			"max": [ 1.25,
				1.08249998,
				0.75
			]
		},
		{
			"bufferView": 2,
			"count": 152,
			"type": "VEC3",
			"componentType": 5126
		},
		{
			"bufferView": 3,
			"count": 152,
			"type": "VEC4",
			"componentType": 5126
		},
		{
			"bufferView": 4,
			"count": 152,
			"type": "VEC2",
			"componentType": 5126
		},
		{
			"bufferView": 5,
			"count": 152,
			"type": "VEC2",
			"componentType": 5126
		}
	],
	"buffers": [
		{
			"uri": "Table_01.bin",
			"byteLength": 8740
		}
	],
	"bufferViews": [
		{
			"buffer": 0,
			"byteLength": 228,
			"target": 34963
		},
		{
			"buffer": 0,
			"byteLength": 1824,
			"byteOffset": 228,
			"target": 34962
		},
		{
			"buffer": 0,
			"byteLength": 1824,
			"byteOffset": 2052,
			"target": 34962
		},
		{
			"buffer": 0,
			"byteLength": 2432,
			"byteOffset": 3876,
			"target": 34962
		},
		{
			"buffer": 0,
			"byteLength": 1216,
			"byteOffset": 6308,
			"target": 34962
		},
		{
			"buffer": 0,
			"byteLength": 1216,
			"byteOffset": 7524,
			"target": 34962
		}
	],
	"images": [
		{
			"uri": "Texture_Atlas.png"
		}
	],
	"materials": [
		{
			"name": "M_Texture_Atlas",
			"pbrMetallicRoughness": 
			{
				"baseColorTexture": 
				{
					"index": 0
				},
				"metallicFactor": 0.25,
				"roughnessFactor": 0.899999976
			}
		}
	],
	"meshes": [
		{
			"name": "SM_Table_1B",
			"primitives": [
				{
					"attributes": 
					{
						"POSITION": 1,
						"NORMAL": 2,
						"TANGENT": 3,
						"TEXCOORD_0": 4,
						"TEXCOORD_1": 5
					},
					"indices": 0,
					"material": 0
				}
			]
		}
	],
	"nodes": [
		{
			"name": "SM_Table_1B_722_StaticMeshComponent0",
			"translation": 
			[ -11,
				0,
				106.5
			],
			"mesh": 0
		}
	],
	"samplers": [
		{
			"name": "Texture_Atlas",
			"minFilter": 9987,
			"magFilter": 9729
		}
	],
	"scenes": [
		{
			"name": "Overview_Map",
			"nodes": [ 0 ]
		}
	],
	"textures": [
		{
			"name": "Texture_Atlas",
			"sampler": 0,
			"source": 0
		}
	]
}